<?xml version="1.0" encoding="UTF-8" standalone="no"?>
<svg
   xmlns:dc="http://purl.org/dc/elements/1.1/"
   xmlns:cc="http://creativecommons.org/ns#"
   xmlns:rdf="http://www.w3.org/1999/02/22-rdf-syntax-ns#"
   xmlns:svg="http://www.w3.org/2000/svg"
   xmlns="http://www.w3.org/2000/svg"
   xmlns:sodipodi="http://sodipodi.sourceforge.net/DTD/sodipodi-0.dtd"
   xmlns:inkscape="http://www.inkscape.org/namespaces/inkscape"
   width="315.84918mm"
   height="89.946938mm"
   viewBox="0 0 315.84918 89.946938"
   version="1.1"
   id="svg2241"
   inkscape:version="1.0.2 (e86c8708, 2021-01-15)"
   sodipodi:docname="white_logo_2.svg">
  <defs
     id="defs2235" />
  <sodipodi:namedview
     id="base"
     pagecolor="#bababa"
     bordercolor="#666666"
     borderopacity="1.0"
     inkscape:pageopacity="0.69411765"
     inkscape:pageshadow="2"
     inkscape:zoom="0.33271605"
     inkscape:cx="567.08438"
     inkscape:cy="71.759542"
     inkscape:document-units="mm"
     inkscape:current-layer="layer1"
     inkscape:document-rotation="0"
     showgrid="false"
     fit-margin-top="0"
     fit-margin-left="0"
     fit-margin-right="0"
     fit-margin-bottom="0"
     inkscape:window-width="1252"
     inkscape:window-height="769"
     inkscape:window-x="344"
     inkscape:window-y="220"
     inkscape:window-maximized="0" />
  <metadata
     id="metadata2238">
    <rdf:RDF>
      <cc:Work
         rdf:about="">
        <dc:format>image/svg+xml</dc:format>
        <dc:type
           rdf:resource="http://purl.org/dc/dcmitype/StillImage" />
        <dc:title></dc:title>
      </cc:Work>
    </rdf:RDF>
  </metadata>
  <g
     inkscape:label="Layer 1"
     inkscape:groupmode="layer"
     id="layer1"
     transform="translate(44.207743,-129.18029)">
    <path
       style="fill:#ffffff;stroke-width:0.999524"
       d="m 21.862757,219.41502 c -2.28803,-0.41073 -4.237032,-1.90708 -5.383016,-4.13283 -0.366826,-0.71246 -0.767385,-2.40345 -1.096268,-4.628 -1.316074,-8.90183 -4.713086,-21.20525 -8.4077771,-30.45161 -2.552834,-6.38875 -6.11426805,-12.84872 -8.151728,-14.78617 l -0.779819,-0.74154 -0.862699,1.34441 c -0.474494,0.73942 -1.11381,1.52028 -1.420714,1.73525 -0.489746,0.34303 -0.548248,0.60898 -0.478232,2.17394 0.09226,2.06156 0.06147,2.14455 -2.522769,6.80778 -4.0435139,7.29645 -6.0356849,12.98737 -6.5433739,18.69202 l -0.157235,1.76675 1.261659,0.71213 c 4.1432069,2.33861 5.0434589,8.60911 1.760262,12.26081 -1.618339,1.79999 -2.339056,1.95977 -8.961243,1.98665 -4.488592,0.0182 -5.874662,0.11338 -7.227788,0.4963 -2.423026,0.68567 -4.374927,1.6059 -6.260869,2.95167 -3.071977,2.19212 -6.356383,2.05574 -8.829235,-0.36663 -2.750801,-2.69465 -3.242966,-6.3616 -1.328298,-9.89665 l 0.805746,-1.48766 2.098591,-1.09181 c 1.600258,-0.83254 2.553754,-1.57878 4.015408,-3.14258 3.269753,-3.49826 4.770039,-6.27357 7.93729,-14.68282 1.53392,-4.07264 3.770325,-10.32046 4.969794,-13.88402 1.709566,-5.07903 2.353099,-6.66317 2.977912,-7.33048 l 0.79706,-0.85127 -0.318888,-1.42497 -0.318898,-1.42497 1.353586,-2.26484 c 1.289965,-2.1584 3.427677,-7.56821 3.427677,-8.67428 0,-0.69264 -0.64992,-0.90966 -4.258012,-1.42182 -1.658011,-0.23535 -3.321598,-0.48807 -3.69685,-0.56158 l -0.682285,-0.13368 0.723896,-3.69233 c 0.476233,-2.42909 0.949098,-4.0765 1.382131,-4.81522 1.078977,-1.84059 3.543293,-3.9977 5.331292,-4.66667 l 1.5749,-0.58925 3.977666,0.31919 c 2.5285759,0.20293 6.2239959,0.261 10.1436799,0.15943 l 6.166013,-0.15978 1.486443,0.55615 c 1.148603,0.42974 1.974769,1.0435 3.6350791,2.70047 2.995793,2.98979 6.468799,8.2807 12.691067,19.33407 0.982542,1.74542 1.82543,3.21694 1.873078,3.27004 0.04768,0.0531 0.711161,-0.21465 1.474467,-0.59503 0.763317,-0.38038 1.779403,-0.69159 2.257965,-0.69159 0.73555,0 0.926899,-0.13585 1.237131,-0.87836 0.201854,-0.48309 1.048221,-1.64181 1.880815,-2.57491 1.912609,-2.1435 4.106264,-5.24419 4.106264,-5.80412 0,-0.25078 -1.176779,-1.2083 -2.842916,-2.31324 -3.648822,-2.41977 -4.666648,-3.4811 -5.090696,-5.30826 -0.698947,-3.01174 0.149059,-5.79801 2.447914,-8.04299 1.463244,-1.42896 3.511059,-2.19981 5.164871,-1.94419 0.540083,0.0835 2.767052,0.27642 4.948834,0.42877 2.181771,0.15236 5.153875,0.46326 6.604672,0.6909 2.56763,0.40288 3.22625,0.38646 6.19067,-0.1544 3.20838,-0.58538 6.12158,0.92755 7.51351,3.90204 l 0.79679,1.7027 0.21324,4.88171 c 0.11728,2.68494 0.2876,5.13921 0.37848,5.45392 0.0909,0.31471 1.5646,3.36883 3.27495,6.78694 1.71033,3.41812 3.56954,7.25606 4.13156,8.52875 0.89141,2.01862 1.44095,2.81803 1.44095,2.09612 0,-0.11983 1.12699,-2.09532 2.50441,-4.38999 1.82564,-3.04133 2.69348,-4.7921 3.20201,-6.45966 0.92887,-3.04592 1.51038,-4.1222 3.0235,-5.59602 l 1.26891,-1.23597 -1.75981,-1.00361 c -0.9679,-0.55199 -2.43511,-1.49309 -3.26048,-2.09133 -1.32619,-0.96126 -1.5491,-1.25885 -1.91731,-2.55959 -0.8141,-2.87586 -0.47719,-5.18993 1.08492,-7.45192 0.76738,-1.11119 4.09292,-3.9024 4.64946,-3.9024 0.19865,0 1.42481,0.3602 2.7248,0.80044 5.67905,1.92324 11.98058,2.57383 20.308279,2.09671 2.92423,-0.16753 5.90081,-0.22713 6.61462,-0.13244 2.46766,0.32734 4.66061,1.84662 6.27579,4.34788 1.08975,1.68757 1.4676,3.06554 2.21935,8.09371 0.76032,5.08542 1.45215,8.09302 2.52457,10.97499 0.72215,1.94066 1.81347,4.49577 1.92021,4.49577 0.0296,0 0.0563,-2.23136 0.0594,-4.95857 0.005,-4.25994 0.0897,-5.29213 0.60274,-7.32595 1.36943,-5.42915 3.6464,-9.30598 7.191,-12.24353 4.14508,-3.43521 8.27233,-4.90823 15.02023,-5.36075 5.33908,-0.35804 7.60948,-0.0588 12.73338,1.67824 5.05106,1.71234 4.73023,1.74351 8.46502,-0.82233 l 2.49818,-1.71627 1.94665,1.02777 c 2.51471,1.32768 3.80995,2.43779 4.75575,4.07597 l 0.76303,1.32163 0.603,-1.45483 c 0.81149,-1.95788 2.67355,-3.62251 4.8696,-4.35332 l 1.65559,-0.55093 2.63451,0.57455 c 2.01036,0.43843 3.51166,0.57378 6.33692,0.57129 3.26452,-0.003 3.98389,-0.0884 6.08251,-0.72297 2.61573,-0.79094 3.76195,-0.7695 5.81061,0.10866 1.7469,0.74881 2.92359,2.1417 4.5379,5.37171 0.81419,1.62904 1.53507,3.02035 1.60201,3.09178 0.067,0.0715 0.64794,-0.4809 1.29111,-1.22743 2.24979,-2.61131 6.95332,-5.71613 10.58096,-6.98455 5.48448,-1.91764 11.91925,-1.70061 18.56235,0.62609 1.41506,0.49562 2.76288,0.9834 2.99521,1.08397 0.31957,0.13835 0.73794,-0.30216 1.71897,-1.80995 0.71312,-1.09604 1.43723,-1.99433 1.60913,-1.99621 0.43561,-0.005 4.34987,1.45522 5.56913,2.07723 1.48233,0.75624 3.42589,2.97666 4.36838,4.99078 0.73583,1.57245 0.84,2.09647 0.94097,4.73405 l 0.1135,2.96588 -1.81761,1.17143 c -0.9997,0.64428 -2.01901,1.39844 -2.26513,1.67589 -0.57065,0.6433 -0.9923,2.46891 -1.00057,4.33213 -0.005,1.21661 -0.14974,1.65691 -0.87989,2.68387 -1.24178,1.74659 -2.21721,2.48168 -4.16522,3.13899 -3.17373,1.07091 -6.10485,0.0485 -8.01233,-2.79489 l -1.12812,-1.68163 0.19134,-1.53308 c 0.10525,-0.84319 0.20138,-1.97935 0.21366,-2.52479 l 0.0223,-0.99172 -2.31401,0.002 c -1.2727,8.2e-4 -2.78862,0.13325 -3.36874,0.29429 -1.2509,0.34728 -2.52414,1.61629 -3.51482,3.50324 -1.83486,3.49483 -0.0612,10.39616 3.24727,12.63488 1.72636,1.16817 3.42989,1.60539 6.81023,1.74789 4.58913,0.19345 9.22044,-0.56227 17.38763,-2.83725 0.50907,-0.14181 1.52062,-0.25654 2.24789,-0.25497 1.1649,0.003 1.52993,0.1562 3.06712,1.29131 l 1.7448,1.28846 0.31175,1.94198 c 0.26311,1.63911 0.24748,2.14819 -0.10031,3.26426 -0.856,2.74707 -1.11197,3.0382 -4.36223,4.96135 -6.20429,3.671 -11.86337,6.16179 -17.0575,7.50772 l -2.90903,0.7538 -5.15691,-7.9e-4 c -5.77185,-7.9e-4 -7.34608,-0.28204 -12.56173,-2.24462 -7.00154,-2.63457 -9.90613,-4.84925 -12.94644,-9.87141 -0.58908,-0.97308 -0.93607,-1.3674 -0.85705,-0.97394 0.0731,0.36363 0.34446,1.58675 0.60317,2.71805 0.41179,1.80088 0.42673,2.22882 0.12002,3.43795 -0.40465,1.59507 -1.50497,3.32711 -2.57383,4.0515 -0.40823,0.27667 -1.37989,0.75136 -2.15924,1.05487 l -1.41701,0.55185 -2.02093,-0.48367 c -2.44101,-0.5842 -3.86894,-0.60543 -6.05486,-0.0901 -2.30285,0.54296 -4.86363,1.89659 -7.46456,3.94577 -1.24762,0.98296 -2.39638,1.6956 -2.63071,1.63197 -0.22878,-0.0622 -1.00593,-0.19346 -1.727,-0.29184 -1.82059,-0.24843 -3.39505,-1.04968 -4.52907,-2.30492 -1.56039,-1.72704 -2.13025,-3.44776 -2.60782,-7.87439 l -0.15693,-1.45451 2.06756,-1.10692 c 2.42327,-1.29735 3.38639,-2.17638 4.07682,-3.72089 1.37963,-3.08627 1.63112,-9.35594 0.74966,-18.68903 -0.39806,-4.21483 -0.62353,-5.62735 -0.95706,-5.99591 -0.36594,-0.40436 -4.83903,-2.88329 -5.20274,-2.88329 -0.0646,0 -0.67522,0.71012 -1.35708,1.57803 -1.89,2.40567 -2.28997,3.47517 -3.75103,10.03004 l -0.1411,0.63309 1.63528,-0.14828 c 2.99182,-0.27129 6.10483,1.53743 7.57818,4.40309 0.80222,1.56031 0.94496,4.00281 0.38173,6.53191 l -0.32839,1.47459 -2.04035,1.09295 c -4.85809,2.60232 -5.32769,4.18516 -3.15685,10.64047 0.65937,1.96072 1.27549,3.75543 1.36914,3.98823 0.13747,0.34167 -0.48217,0.67302 -3.21467,1.71897 l -3.38496,1.2957 -2.11565,-0.008 c -2.69698,-0.01 -4.19224,-0.73295 -6.13553,-2.96719 -1.94059,-2.23115 -2.3908,-2.37062 -5.93367,-1.83837 -1.6358,0.24576 -3.59688,0.73597 -4.53117,1.13267 -3.71271,1.57644 -8.01212,1.7781 -11.56523,0.54245 -2.02416,-0.70394 -6.01292,-3.13801 -8.77424,-5.35432 l -1.76701,-1.41826 -0.30079,1.44891 c -0.42542,2.04925 -1.70824,3.79471 -3.46237,4.71109 -1.2753,0.66622 -1.63886,0.7348 -3.41209,0.64367 -1.09158,-0.0562 -2.93674,-0.37454 -4.10035,-0.70762 -3.04557,-0.87179 -6.97211,-0.90012 -9.61645,-0.0694 l -1.94719,0.61172 -1.77767,-0.53995 c -3.45735,-1.05014 -5.546059,-3.85451 -5.778009,-7.75772 -0.067,-1.12725 -0.19735,-2.04955 -0.28969,-2.04955 -0.0923,0 -0.79168,0.42009 -1.55409,0.93352 -1.18963,0.80114 -1.5565,1.27264 -2.58727,3.32503 -1.49853,2.98373 -2.86954,4.49186 -5.06683,5.57359 l -1.70738,0.84054 -5.28447,0.19062 c -2.90647,0.10484 -5.3465,0.25264 -5.42229,0.32844 -0.0758,0.0758 0.28335,1.60511 0.79809,3.39848 0.51476,1.79337 1.06564,3.76801 1.22421,4.38808 0.40002,1.56436 1.41705,2.62077 5.40661,5.61602 1.89986,1.42636 4.00245,3.17023 4.67243,3.87526 3.32479,3.49878 2.90066,8.57684 -0.93323,11.17336 -2.30082,1.55825 -4.95567,1.69558 -8.15675,0.42194 -3.5729,-1.42158 -5.60299,-1.79299 -10.48671,-1.91857 -5.13935,-0.13214 -8.91551,0.22538 -10.98146,1.0397 -0.7293,0.28746 -2.08391,1.06348 -3.01024,1.7245 l -1.68423,1.20183 -2.15592,-0.11752 c -5.44336,-0.29674 -8.086008,-4.05171 -6.892576,-9.79373 l 0.463069,-2.228 1.740097,-1.08366 c 0.95707,-0.59601 2.4244,-1.69669 3.26074,-2.44596 1.7317,-1.5514 1.78243,-1.77608 1.14392,-5.06526 -0.69991,-3.60544 -3.7867,-11.69137 -6.697224,-17.54357 -1.369188,-2.75303 -3.205174,-6.11088 -3.668533,-6.70941 -0.04168,-0.0539 -0.602213,-0.019 -1.245557,0.0775 l -1.169703,0.17541 -0.169469,1.27757 c -0.09326,0.70265 -0.710772,3.16693 -1.372347,5.47617 -1.016975,3.54978 -1.189503,4.48468 -1.116408,6.04981 l 0.08646,1.8512 1.901554,3.96686 c 1.045862,2.18178 2.441118,5.36586 3.100574,7.07575 l 1.198999,3.10889 -0.396831,1.88648 c -0.747664,3.55423 -1.333745,4.3017 -8.541693,10.8937 -3.588381,3.28174 -6.864201,6.22932 -7.279593,6.55017 -0.998175,0.77101 -3.184794,1.24833 -4.575202,0.99874 z m 3.649013,-1.91101 c 1.705697,-1.00989 13.928127,-12.52495 14.514648,-13.67461 0.296809,-0.5818 0.723656,-1.87261 0.948548,-2.86846 l 0.408896,-1.81064 -1.204267,-3.07992 c -0.662354,-1.69395 -2.070154,-4.89253 -3.12846,-7.10793 l -1.924194,-4.02802 0.02719,-2.24789 c 0.02179,-1.80931 0.239566,-2.96446 1.115869,-5.92062 0.598795,-2.02002 1.229674,-4.59353 1.401952,-5.71892 l 0.313231,-2.04616 1.479935,-0.15868 c 0.813963,-0.0873 1.707427,-0.1914 1.985475,-0.23139 0.634078,-0.0911 2.306941,2.59887 4.888548,7.86103 4.4849,9.14167 7.68331,19.00987 7.01911,21.65627 -0.18784,0.74841 -2.21545,2.5903 -4.83569,4.39277 l -1.72997,1.19007 -0.34021,1.32229 c -0.981262,3.81386 0.2303,6.96654 3.14515,8.18414 0.54782,0.22884 1.74706,0.41071 2.70812,0.41071 h 1.7249 l 1.69278,-1.15892 c 2.99531,-2.05066 6.64497,-2.80794 13.53281,-2.80794 3.91636,0 7.27327,0.5982 11.16667,1.9899 3.21807,1.15029 4.92028,1.2122 6.85269,0.24924 1.98269,-0.98802 3.25531,-3.07359 3.25531,-5.33484 0,-0.46822 -0.24515,-1.50651 -0.54475,-2.30729 -0.62356,-1.66659 -1.83169,-2.82002 -6.8736,-6.56237 -1.68015,-1.24708 -3.38333,-2.74146 -3.78485,-3.32087 -0.46467,-0.67051 -1.1962,-2.67395 -2.01243,-5.51144 -0.70531,-2.45191 -1.41201,-4.79302 -1.57042,-5.20248 -0.15842,-0.40946 -0.28811,-0.82598 -0.28823,-0.9256 -1.1e-4,-0.0996 1.10069,-0.14377 2.44623,-0.0982 4.28656,0.14545 9.95346,-0.32468 11.34771,-0.94143 1.75475,-0.77621 3.11923,-2.31564 4.68285,-5.28326 l 1.36222,-2.58541 1.56982,-1.01133 1.56981,-1.01132 0.29788,-1.4349 c 0.25635,-1.23482 0.38274,-1.43491 0.90635,-1.43491 h 0.608449 l 0.18412,3.50406 c 0.2154,4.09925 0.41556,5.01843 1.41779,6.51071 0.90666,1.34998 2.24607,2.2935 3.81761,2.68921 0.9625,0.24236 1.4484,0.21842 2.60966,-0.12856 3.65843,-1.09312 6.74262,-1.0151 11.65642,0.29489 3.12785,0.83387 4.45739,0.71942 6.07832,-0.52326 1.47401,-1.13003 2.14532,-2.51505 2.32322,-4.79311 0.19504,-2.49764 0.56266,-2.54401 2.87507,-0.36259 2.02753,1.91268 6.67338,4.97114 9.11359,5.99968 l 1.64412,0.69299 3.43795,-0.0167 3.43794,-0.0167 2.02221,-0.84064 c 2.44721,-1.01733 5.30611,-1.65138 7.65576,-1.69789 2.0304,-0.0402 2.57464,0.2586 4.69314,2.57656 2.55576,2.79642 5.03361,3.20118 9.48997,1.5502 1.42156,-0.52664 2.67492,-1.03937 2.78523,-1.13938 0.11031,-0.10002 -0.28659,-1.54346 -0.88201,-3.20765 -2.39256,-6.68719 -1.59791,-9.41487 3.53865,-12.14651 l 1.73469,-0.92251 0.31669,-1.67839 c 0.76859,-4.07338 -0.51655,-6.68032 -4.06754,-8.25109 l -1.24549,-0.55094 -2.49804,0.27855 c -3.20976,0.35791 -3.02906,0.37531 -3.28496,-0.31644 -0.18349,-0.49603 -0.0753,-0.6934 0.6508,-1.18678 0.94223,-0.64024 0.98876,-0.74103 1.43642,-3.11069 0.668,-3.536 1.69635,-5.88222 3.60556,-8.22622 l 1.22835,-1.50807 -0.45788,-2.13076 c -0.84161,-3.91652 -2.0524,-5.60678 -5.12447,-7.15386 l -1.77021,-0.89145 -1.84748,1.32321 c -2.19292,1.57062 -3.6913,2.30924 -4.70074,2.31718 -0.40568,0.003 -2.72628,-0.67847 -5.15692,-1.51482 l -4.41932,-1.52063 -4.76024,0.0182 c -5.39982,0.0207 -8.29689,0.45727 -11.48434,1.73078 -10.98971,4.3908 -15.63154,16.86954 -11.75505,31.60138 0.20179,0.76687 -0.67903,1.10788 -1.16058,0.44931 -0.76153,-1.04145 -3.22972,-6.17493 -4.12289,-8.57502 -1.42161,-3.82003 -1.931,-5.93109 -2.8309,-11.73184 -0.87332,-5.62952 -1.41029,-7.2674 -2.96195,-9.03462 -1.82061,-2.07357 -4.27208,-2.7864 -8.39416,-2.44082 -1.23634,0.10365 -4.45262,0.19791 -7.147279,0.20948 -6.78409,0.0291 -10.42196,-0.4618 -15.78397,-2.12998 l -2.70026,-0.84009 -1.49946,1.28103 c -1.996,1.70523 -2.92139,3.03832 -3.30783,4.76513 -0.27386,1.22372 -0.25259,1.67777 0.14792,3.15733 l 0.46775,1.72808 2.28373,1.51725 c 1.25605,0.8345 2.9085,1.80536 3.67213,2.1575 1.79985,0.82996 1.82994,1.43759 0.12546,2.53325 -1.7153,1.10261 -2.85312,2.71762 -3.50028,4.96822 -0.78864,2.74268 -1.2048,3.6199 -3.53973,7.46128 -1.14933,1.89087 -2.49722,4.31184 -2.9953,5.37993 -0.49809,1.06809 -0.93805,1.90114 -0.9777,1.8512 -0.0397,-0.0499 -0.93431,-2.05438 -1.98814,-4.45433 -1.05384,-2.39995 -3.20774,-6.88697 -4.78646,-9.97115 -3.19581,-6.24332 -3.02514,-5.60261 -3.40232,-12.77219 -0.25758,-4.8962 -0.65606,-6.00393 -2.64902,-7.36391 -1.63862,-1.11819 -3.35543,-1.3288 -5.68702,-0.69767 l -1.73698,0.47017 -2.71187,-0.44032 c -3.607874,-0.58583 -12.637314,-1.27151 -13.959514,-1.06008 -1.278821,0.20449 -3.215859,1.81772 -3.979216,3.31402 -1.212162,2.37603 -1.101595,5.24065 0.263765,6.83363 0.375311,0.43789 1.986014,1.66088 3.579345,2.71776 1.676092,1.11179 3.094177,2.25932 3.364938,2.72293 l 0.467997,0.80131 -1.412637,2.10302 c -0.77695,1.15666 -2.082628,2.85099 -2.901498,3.76516 -1.51239,1.68839 -2.547987,3.38473 -2.547987,4.17368 0,0.29849 -0.139204,0.3821 -0.442429,0.26575 -0.900792,-0.34568 -3.272852,0.39065 -4.32726,1.34325 l -1.015386,0.91733 -0.386287,-0.6109 c -0.212458,-0.33599 -1.63797,-2.82564 -3.167791,-5.53254 -7.467344,-13.21283 -11.5173761,-18.75759 -14.7220701,-20.15543 -0.422678,-0.18436 -3.898343,-0.32747 -9.524864,-0.39218 -4.87263,-0.0561 -9.8113679,-0.12016 -10.9749839,-0.14249 -1.862583,-0.0358 -2.260654,0.0447 -3.327836,0.67202 -1.437095,0.84485 -2.916071,2.41739 -3.677768,3.91044 -0.571578,1.12038 -1.74467,6.28466 -1.486283,6.54304 0.08126,0.0813 1.578989,0.36601 3.328276,0.63276 3.554537,0.54204 4.68135,0.99096 4.925104,1.96216 0.321067,1.27923 -1.747657,6.91178 -3.747925,10.2046 l -0.963261,1.58569 0.389184,1.54504 0.389205,1.54504 -1.004502,1.01783 c -0.864088,0.87556 -1.205895,1.62776 -2.445335,5.38138 -4.086494,12.37578 -8.015863,22.48433 -9.971532,25.65236 -2.91986,4.72996 -5.015292,6.86832 -8.362138,8.53346 l -1.624736,0.80835 -0.755381,1.58043 c -2.954263,6.18104 3.271342,12.29712 8.504451,8.35484 1.719311,-1.29521 4.225368,-2.45768 6.872067,-3.18769 1.822263,-0.50262 2.849134,-0.58926 7.404804,-0.62477 6.839274,-0.0533 6.310285,0.0247 7.578642,-1.1178 1.464732,-1.31939 2.107116,-2.82446 2.107116,-4.9369 0,-2.81998 -1.229944,-4.9223 -3.502432,-5.98669 l -1.363341,-0.63854 0.150898,-2.91298 c 0.309873,-5.98189 2.191597,-11.04193 8.2303909,-22.13186 l 0.960933,-1.7647 -0.236648,-1.40878 c -0.130158,-0.77483 -0.324485,-1.61705 -0.431844,-1.87159 -0.135426,-0.32108 -0.07447,-0.4628 0.199005,-0.4628 0.742886,0 3.629242,-3.6765 3.629242,-4.62275 0,-0.70468 0.435603,-0.44119 1.91845595,1.16046 4.78435205,5.16769 9.76926905,16.32394 13.93788415,31.19308 1.336143,4.7659 2.849483,11.75572 3.323127,15.34885 0.256198,1.94359 0.579814,3.18427 1.103685,4.23132 1.545334,3.08863 4.99682,4.23245 7.786852,2.58058 z m -3.829667,-3.77336 c -0.710002,-0.71 -0.754101,-0.86811 -1.245916,-4.46614 -0.439981,-3.21888 -1.95391,-10.07954 -3.287385,-14.89738 -4.421135,-15.9736 -10.1166231,-28.31953 -15.4233361,-33.4327 -2.60581905,-2.51078 -5.639734,-3.83812 -6.043572,-2.64408 -0.486698,1.43904 -2.089345,4.35435 -2.850663,5.18552 -0.762437,0.83238 -1.042493,0.96311 -2.063217,0.96311 -2.0064249,0 -4.5011669,-1.16592 -5.3867649,-2.5175 l -0.437762,-0.66811 1.351297,-2.70464 c 2.505297,-5.01434 3.547751,-9.23231 2.87597,-11.63672 -0.534705,-1.91381 -3.043001,-3.57542 -6.086191,-4.03177 -1.026172,-0.15389 -1.245787,-0.28392 -1.245787,-0.73761 0,-0.78525 1.23834,-2.46763 2.298725,-3.12298 l 0.9029,-0.55802 3.937835,0.3336 c 2.4721429,0.20943 6.1027639,0.28201 9.7543349,0.195 l 5.816501,-0.13862 0.743775,0.46552 c 2.56374,1.60459 5.0160221,5.2261 13.3085031,19.65392 2.837959,4.93766 5.413063,9.14565 5.722465,9.35109 0.50401,0.33464 0.635468,0.31027 1.263309,-0.23419 0.385416,-0.33424 1.142476,-1.50025 1.682349,-2.59114 0.842828,-1.70307 1.088391,-1.99564 1.737262,-2.06986 0.415633,-0.0476 1.096918,0.055 1.51399,0.22768 1.014377,0.42017 2.818807,2.41303 3.42181,3.77915 l 0.487438,1.10429 -0.373042,2.11566 c -0.205173,1.16361 -0.839001,3.72243 -1.40851,5.68625 -1.903443,6.56354 -1.746298,8.41056 1.255003,14.75045 3.786387,7.9983 4.006052,8.7652 3.053266,10.65975 -0.365876,0.7275 -12.282342,11.84415 -13.253399,12.36384 -0.854273,0.4572 -1.257012,0.38081 -2.021188,-0.38337 z m 7.626779,-6.2161 c 5.666621,-5.19623 7.008123,-6.65375 7.008123,-7.61418 0,-0.51187 -2.419808,-6.1573 -3.989031,-9.30646 -1.564445,-3.13957 -2.093493,-5.12219 -2.093493,-7.84551 0,-2.06242 0.116634,-2.62852 1.947043,-9.4501 0.351252,-1.30907 0.718108,-2.97514 0.815222,-3.7024 l 0.176585,-1.32229 -0.842119,-1.26963 c -0.791613,-1.19348 -2.409022,-2.565 -3.024869,-2.565 -0.152048,0 -0.620405,0.78953 -1.040805,1.75451 -1.465242,3.36338 -3.550169,4.49023 -5.131416,2.77338 -0.385626,-0.41868 -2.238814,-3.48308 -4.118199,-6.80977 C 11.867657,149.50397 8.3454139,143.93728 5.8972799,141.42387 l -1.287507,-1.32183 -4.87934705,0.17625 c -3.13975495,0.11343 -6.63694895,0.0535 -9.80921885,-0.16823 l -4.929872,-0.34452 -0.782908,0.75007 c -0.430595,0.41255 -0.782907,0.83269 -0.782907,0.93366 0,0.10097 0.550118,0.3221 1.222468,0.4914 6.6962709,1.68614 7.6618219,7.11745 2.965328,16.68025 l -1.233862,2.51234 0.44035,0.49094 c 0.582912,0.64988 2.093873,1.40663 3.2365589,1.62101 1.379903,0.25887 2.165748,-0.52772 3.69527,-3.69874 1.70055,-3.52559 2.026435,-3.65556 5.26922095,-2.1015 5.77936805,2.76969 11.61263015,12.59904 16.82991615,28.35928 2.599762,7.85326 5.435202,19.45955 6.054447,24.78255 0.203113,1.74592 0.509298,2.51419 0.999874,2.50885 0.176696,-0.002 3.058404,-2.51343 6.403791,-5.5811 z m -67.634984,4.24112 c -0.722356,-0.42073 -1.32283,-1.79288 -1.126654,-2.57452 0.218386,-0.87009 0.972307,-1.59787 2.64729,-2.55545 2.271948,-1.29888 5.030774,-4.21977 7.490753,-7.9308 1.900615,-2.8672 2.559991,-4.16758 4.022894,-7.93373 2.454461,-6.31884 4.548134,-12.09723 6.61475,-18.25624 1.947583,-5.80427 2.156813,-6.11125 3.953798,-5.80132 1.222498,0.21085 3.389236,1.30362 4.297423,2.16736 0.9830919,0.93495 0.9289479,1.80698 -0.235527,3.79385 -1.65943,2.83139 -4.777306,9.51167 -5.726574,12.26961 -1.705607,4.95535 -2.133934,7.25379 -2.152864,11.55249 l -0.01709,3.88323 0.773581,0.80759 c 0.425468,0.44419 1.170293,0.88203 1.655162,0.97299 1.844652,0.34605 2.848784,1.96747 2.228609,3.59865 -0.490786,1.29087 -1.17667,1.50048 -4.128434,1.26168 -6.752875,-0.54633 -13.843738,1.15679 -18.100601,4.34752 -0.978694,0.73358 -1.467181,0.82188 -2.196514,0.39709 z m 2.427104,-1.99853 c 2.002127,-1.34832 4.484405,-2.42476 7.420906,-3.21809 l 2.515373,-0.67956 5.421378,-0.0436 5.421379,-0.0436 0.08956,-0.45657 c 0.213618,-1.08931 -0.193508,-1.6671 -1.38629,-1.96745 -1.499396,-0.37756 -2.677985,-1.37441 -3.099004,-2.62113 -0.484829,-1.43567 -0.407376,-6.86707 0.138134,-9.68642 0.962122,-4.97257 3.761229,-12.06006 7.110414,-18.00399 l 1.488511,-2.64171 -0.681105,-0.71093 c -0.801289,-0.83635 -3.070858,-1.87398 -3.842691,-1.75683 -0.454023,0.0689 -0.928158,1.21706 -2.982459,7.22228 -2.537442,7.41752 -6.689775,18.52586 -7.611846,20.36322 -0.291981,0.5818 -1.430898,2.4264 -2.530915,4.09909 -2.375129,3.61161 -5.499961,6.83426 -8.047218,8.29915 -1.758173,1.01109 -2.010932,1.38289 -1.624566,2.38974 0.236667,0.61675 0.616986,0.5228 2.200462,-0.54357 z m 87.100949,-0.22189 c -0.95715,-0.41616 -1.28656,-1.25109 -1.02045,-2.58648 0.12453,-0.62489 0.47346,-1.05214 1.28528,-1.57382 1.81064,-1.16348 4.7834,-3.8763 5.24513,-4.78648 1.57008,-3.09497 0.17378,-9.7657 -4.23922,-20.2525 -2.22612,-5.29001 -6.08794,-12.67743 -7.754257,-14.83339 -1.223517,-1.58303 -2.888295,-2.01512 -4.097949,-1.0636 -1.489191,1.1714 -3.683226,0.3404 -5.692529,-2.15607 -1.293234,-1.6068 -1.137189,-2.40575 0.946949,-4.84834 2.286281,-2.67952 5.202333,-7.10215 5.202333,-7.89014 0,-1.05712 -0.748564,-3.18951 -1.456757,-4.14974 -0.374091,-0.50724 -2.073692,-1.87484 -3.776901,-3.03912 -2.75186,-1.88113 -3.105841,-2.2106 -3.178367,-2.95832 -0.100792,-1.03918 0.569079,-2.39405 1.362392,-2.7555 0.675548,-0.3078 7.823784,0.23931 13.077236,1.00091 l 3.14557,0.45602 2.18776,-0.49967 c 1.94728,-0.44475 2.26341,-0.45721 2.876,-0.11338 0.8943,0.50197 1.00688,1.05142 1.35025,6.59013 0.1578,2.5454 0.40293,5.12448 0.54474,5.73128 0.14179,0.6068 1.03067,2.51668 1.97528,4.24418 5.78254,10.57512 12.28577,26.83102 15.37016,38.42025 1.01249,3.80435 2.18177,5.28375 7.05721,8.92902 5.18368,3.87573 6.11046,5.21307 4.5976,6.63433 -0.8735,0.82061 -2.04441,0.77447 -4.75259,-0.18727 -4.35397,-1.54621 -7.13327,-1.98057 -12.74378,-1.99163 -2.93727,-0.006 -5.90361,0.1339 -7.14035,0.33628 -2.5403,0.41566 -5.56596,1.53764 -7.54297,2.79709 -1.64096,1.04538 -1.66742,1.05048 -2.82777,0.54596 z m 2.46526,-1.71616 c 3.66467,-2.32406 7.65865,-3.18862 14.79212,-3.20198 5.84923,-0.011 9.59754,0.59856 14.09781,2.29245 2.02529,0.76232 2.94894,0.67943 2.94894,-0.26466 0,-0.64551 -1.68897,-2.16752 -5.15692,-4.64714 -2.096,-1.49864 -4.46919,-3.81914 -5.41524,-5.29498 -0.47944,-0.74791 -1.31301,-3.08928 -2.24361,-6.3019 -3.25936,-11.25202 -7.61001,-22.0457 -13.64082,-33.84203 -3.35568,-6.56376 -3.47773,-7.04156 -3.81279,-14.92726 -0.0602,-1.41702 -0.19198,-2.70993 -0.29286,-2.87314 -0.18532,-0.29985 -0.85786,-0.24401 -3.35678,0.27873 -0.82081,0.17169 -1.92456,0.1749 -3.17349,0.009 -5.288518,-0.70155 -8.785523,-1.04609 -11.289821,-1.11234 l -2.763434,-0.0731 -0.321107,0.6329 c -0.176606,0.34811 -0.268572,0.76463 -0.204363,0.9256 0.06417,0.16099 1.369398,1.11616 2.900419,2.12262 1.531011,1.00646 3.093247,2.19652 3.471627,2.64457 1.207975,1.43042 1.922755,3.30415 1.925593,5.04774 l 0.003,1.58851 -1.947833,2.90726 c -1.071309,1.599 -2.618383,3.65555 -3.437943,4.57012 -0.819569,0.91457 -1.49012,1.844 -1.49012,2.06538 0,0.22138 0.600244,1.03719 1.333865,1.81289 1.609763,1.70209 2.653436,1.9995 3.621036,1.03191 1.131531,-1.13153 3.520853,-0.60118 5.127498,1.13812 1.720593,1.86266 6.239313,10.48307 8.790573,16.76991 3.17526,7.82461 4.39922,12.30094 4.39922,16.0893 0,3.69912 -0.6232,4.6732 -5.48749,8.57715 -1.10534,0.88711 -1.65286,1.51523 -1.65286,1.89615 0,1.17 0.59215,1.20589 2.27614,0.13794 z M 167.6201,181.37136 c -0.2909,-0.1231 -1.30246,-1.02142 -2.24789,-1.99628 -2.19038,-2.25853 -3.74443,-3.02943 -6.114,-3.03293 -2.45052,-0.004 -5.92804,0.65047 -9.17614,1.72594 -4.36066,1.44385 -7.51394,1.22008 -10.47496,-0.74335 -0.73798,-0.48935 -2.05429,-1.34768 -2.92513,-1.90739 -3.29151,-2.11556 -5.95914,-5.23166 -7.69492,-8.98855 -1.32624,-2.87046 -1.76779,-5.35707 -1.76213,-9.92354 0.004,-3.23749 0.10825,-4.22908 0.66945,-6.36759 1.20948,-4.60893 3.39712,-7.89825 6.72373,-10.10979 3.63613,-2.41728 6.85666,-3.19315 13.29991,-3.20408 l 4.36354,-0.007 4.23133,1.5122 c 3.22264,1.15171 4.57805,1.51113 5.68583,1.50775 1.66763,-0.005 3.73405,-0.7647 5.6312,-2.06997 0.78282,-0.53859 1.43619,-0.80583 1.73687,-0.71039 0.82211,0.26092 1.66837,1.37654 2.1544,2.84013 l 0.46586,1.40285 -0.46923,0.52892 c -1.67793,1.89139 -3.34132,5.57946 -3.97953,8.82339 -0.35181,1.78821 -0.90561,2.41604 -2.13117,2.41604 -0.38788,0 -0.98177,-0.22394 -1.31977,-0.49763 l -0.61455,-0.49763 0.0671,-2.21306 c 0.10846,-3.57802 -0.6581,-4.55326 -4.47057,-5.68761 -5.11841,-1.52292 -9.9799,-1.87293 -12.05587,-0.86797 -2.75634,1.33433 -6.15492,6.31334 -7.11593,10.42504 -0.64525,2.76071 -0.40991,7.26408 0.52366,10.02066 1.56742,4.62816 4.04961,6.9707 8.60765,8.12333 1.83208,0.46329 2.73183,0.53169 5.65692,0.43007 4.00213,-0.13902 5.14528,-0.42602 6.44639,-1.61839 0.77125,-0.7068 0.95591,-1.08492 1.05608,-2.16245 0.23375,-2.5144 -0.44273,-3.17151 -4.04151,-3.92588 -0.95227,-0.19962 -1.80327,-0.4348 -1.89109,-0.52263 -0.24742,-0.24741 0.40691,-2.17495 0.8683,-2.55787 0.30801,-0.25562 2.09219,-0.35766 7.07302,-0.40453 3.66361,-0.0345 7.43465,-0.17684 8.38008,-0.31638 1.82488,-0.26934 2.31047,-0.152 3.37184,0.81472 0.43121,0.39275 0.59496,0.8387 0.59476,1.61981 l -2.6e-4,1.07784 -1.38814,0.77827 c -4.72732,2.65041 -6.66137,7.31435 -5.27741,12.72641 0.29511,1.15407 0.61962,2.30722 0.72114,2.56255 0.1431,0.35993 -0.028,0.55306 -0.76138,0.85949 -1.04943,0.43848 -1.62903,0.47154 -2.41746,0.13789 z m 1.71611,-1.26327 c -0.002,-0.10909 -0.17215,-0.75614 -0.37904,-1.4379 -1.75306,-5.77665 0.0694,-10.77068 5.20824,-14.27253 0.83636,-0.56992 1.52064,-1.15079 1.52064,-1.29082 0,-0.14003 -0.24916,-0.50377 -0.5537,-0.8083 -0.42215,-0.42214 -0.75348,-0.51621 -1.39454,-0.39595 -1.70417,0.31971 -9.38273,0.62518 -12.33781,0.49082 -2.59623,-0.11802 -3.09908,-0.0753 -3.40161,0.28926 -0.40457,0.48747 -0.45011,0.46139 1.66618,0.95438 2.3696,0.552 3.0402,0.95876 3.59465,2.18037 0.68272,1.50426 0.65948,3.00629 -0.0688,4.44617 -1.1731,2.31934 -4.00511,3.41765 -8.83606,3.4268 -10.24406,0.0194 -15.70648,-5.47251 -15.77762,-15.86284 -0.0265,-3.87472 0.38399,-5.70566 1.95673,-8.7271 1.38626,-2.6632 3.11189,-4.80068 4.99459,-6.18664 1.36951,-1.00818 1.77985,-1.16788 3.41462,-1.32897 2.55305,-0.25157 6.67799,0.24924 9.90052,1.20202 5.10282,1.50872 6.12361,2.61715 6.12913,6.65535 l 0.003,2.32518 0.62361,-0.0773 c 0.54973,-0.0682 0.69505,-0.35927 1.2267,-2.45741 0.72722,-2.87001 1.6638,-5.04428 2.93504,-6.81376 1.04522,-1.45488 1.07976,-2.37918 0.1348,-3.60801 l -0.48973,-0.63684 -0.80995,0.57673 c -0.44548,0.31721 -1.62083,0.9608 -2.6119,1.43022 -1.54062,0.7297 -2.08958,0.85235 -3.78537,0.84569 -1.65879,-0.007 -2.50286,-0.19439 -5.15692,-1.14783 -5.35433,-1.92351 -5.58019,-1.96308 -10.31384,-1.80686 -6.84731,0.22597 -10.03696,1.36544 -13.5533,4.84175 -2.14133,2.11697 -3.11644,3.88455 -4.06946,7.37674 -0.47171,1.72849 -0.58089,2.86579 -0.59668,6.21475 -0.012,2.53574 0.11604,4.70425 0.33557,5.68583 0.92653,4.14267 3.65928,8.56101 6.79527,10.98667 1.98239,1.53335 5.77009,3.85965 6.91468,4.24678 1.82542,0.61742 4.42711,0.39321 7.48383,-0.64497 1.55159,-0.52698 4.10886,-1.13535 5.80687,-1.38145 5.1657,-0.74869 7.07889,-0.19501 10.29114,2.97828 1.31701,1.30104 2.15732,1.93002 2.57846,1.93002 0.3436,0 0.62344,-0.0893 0.62187,-0.19833 z m -93.341599,-1.84107 c -2.52212,-1.30135 -2.93905,-5.5439 -0.95834,-9.75174 0.48517,-1.0307 1.63294,-3.0538 2.5506,-4.49578 1.89799,-2.98241 3.47367,-6.24804 3.93204,-8.14922 0.64882,-2.69105 1.61276,-3.59634 3.82937,-3.59634 1.5321,0 2.33456,0.37771 2.92461,1.3766 0.87113,1.47469 0.46753,3.0137 -2.11066,8.04849 -1.26535,2.47102 -2.25789,4.68898 -2.20565,4.92882 0.0712,0.32671 0.72497,-0.0975 2.60733,-1.69163 3.27199,-2.77102 4.51094,-3.49442 5.98477,-3.49442 1.39159,0 2.33949,0.75502 2.77569,2.21086 0.42,1.40184 0.20874,5.52169 -0.29782,5.80794 -1.88907,1.06751 -2.60452,1.89834 -4.09496,4.75539 -1.23187,2.36137 -1.76566,3.11274 -2.60753,3.67033 l -1.05858,0.70113 -5.17713,0.0763 c -4.55049,0.0671 -5.28808,0.019 -6.09374,-0.39669 z m 11.86124,-1.50271 c 0.30404,-0.27547 1.16008,-1.64404 1.90233,-3.04126 1.3746,-2.5876 2.46449,-3.96877 3.72417,-4.71954 0.53086,-0.3164 0.74704,-0.70847 0.88018,-1.59632 0.25086,-1.67289 -0.0863,-3.71852 -0.71682,-4.34904 -1.08791,-1.08791 -2.62577,-0.34588 -6.91273,3.33545 -2.4243,2.08183 -2.99574,2.32128 -3.74689,1.57013 -0.73642,-0.73641 -0.27288,-2.23927 2.13488,-6.92171 1.87779,-3.65175 2.23631,-4.54964 2.23631,-5.60055 0,-1.53547 -0.45078,-1.97747 -2.01673,-1.97747 -1.5641,0 -1.97581,0.51846 -3.00766,3.78743 -0.59895,1.89756 -1.38411,3.59043 -2.57578,5.55361 -3.15476,5.19724 -3.47611,5.76717 -3.98942,7.07553 -1.10036,2.80461 -1.04881,5.32694 0.13767,6.73701 l 0.68111,0.80943 5.3583,-0.081 c 4.82014,-0.0728 5.41382,-0.13123 5.91108,-0.58178 z m 31.897449,0.9774 c -3.56015,-0.98231 -7.74349,-1.12075 -10.79166,-0.35712 l -2.32834,0.5833 -0.64277,-0.42115 c -1.33694,-0.876 -1.43998,-1.31523 -1.71512,-7.31132 -0.21427,-4.66986 -0.37648,-6.08602 -0.93564,-8.16904 -1.9686,-7.33364 -3.683199,-11.75991 -5.081439,-13.11791 -0.53734,-0.52189 -1.75499,-0.99709 -4.81072,-1.87748 -4.81241,-1.3865 -9.14429,-3.10366 -11.90839,-4.72049 -2.89769,-1.69496 -3.45391,-2.49633 -2.75498,-3.96921 0.23123,-0.4873 0.71876,-1.08147 1.0834,-1.32038 l 0.66296,-0.4344 2.42163,0.67856 c 5.36338,1.50285 6.42418,1.60448 16.83455,1.61294 l 9.652689,0.008 0.74367,0.50045 c 1.34257,0.9035 1.91763,2.54134 2.67059,7.60609 1.47915,9.94954 3.61614,15.62612 9.50349,25.24456 2.40106,3.92272 2.6588,4.75019 1.75964,5.64935 -0.66676,0.66676 -1.38875,0.63621 -4.36356,-0.1846 z m 3.57018,-1.07309 c 0,-0.25537 -0.857,-1.8322 -1.90445,-3.50407 -1.04745,-1.67185 -2.81201,-4.82483 -3.92124,-7.0066 -3.31356,-6.5175 -4.53558,-10.43026 -5.81148,-18.60739 -1.15575,-7.40717 -1.27421,-7.56733 -5.48306,-7.41348 -1.56547,0.0572 -5.58344,0.0977 -8.928809,0.0899 -6.55994,-0.0154 -9.52663,-0.34939 -14.18966,-1.59772 l -2.47116,-0.66154 -0.46281,0.571 c -0.67439,0.8321 -0.58038,1.1577 0.55029,1.90595 2.91327,1.92791 7.51472,3.82794 13.54277,5.59209 2.99917,0.87773 4.2125,1.35921 4.76913,1.89248 1.593889,1.52704 3.405039,5.9636 5.253719,12.86938 0.90123,3.36658 1.31526,6.91406 1.32921,11.38895 0.0108,3.4527 0.4107,4.5672 1.55119,4.32275 0.38808,-0.0832 1.59815,-0.34623 2.68904,-0.58454 2.58016,-0.56364 6.41135,-0.36588 9.65269,0.4983 3.03156,0.80824 3.83463,0.85947 3.83463,0.24462 z m 26.49795,-8.69143 c -3.35496,-0.86367 -5.03254,-2.63374 -5.9938,-6.32425 -0.5834,-2.23985 -0.5277,-6.01826 0.11962,-8.11404 0.63805,-2.06575 2.1615,-4.47801 3.70344,-5.86409 l 1.14465,-1.02894 2.93318,0.15138 c 2.82074,0.14559 7.30039,1.15435 7.94261,1.78859 0.1559,0.15396 0.12162,1.1476 -0.0916,2.65386 l -0.34078,2.40774 0.88494,0.76835 c 0.48672,0.4226 1.21221,0.97227 1.6122,1.22148 0.52121,0.32474 0.72726,0.66975 0.72726,1.21776 0,0.62455 -0.0848,0.72972 -0.4628,0.57401 -0.25454,-0.10486 -1.35505,-0.28318 -2.44558,-0.39626 -1.78347,-0.18496 -2.10417,-0.14411 -3.19027,0.40625 -1.52738,0.77398 -2.96124,2.35088 -3.50254,3.85196 -0.23098,0.6405 -0.69408,2.48815 -1.0291,4.10587 l -0.60915,2.94132 z m 0.62423,-1.88535 c 0.87858,-4.05436 1.48853,-5.99278 2.22045,-7.05659 1.43555,-2.08649 3.57682,-3.31706 5.79639,-3.33111 l 1.22388,-0.008 -0.87788,-0.79833 -0.87789,-0.79833 0.28285,-1.82304 c 0.45678,-2.94401 0.51149,-2.81817 -1.50224,-3.45546 -1.17393,-0.37154 -2.80803,-0.61434 -4.77298,-0.70923 l -2.9879,-0.14428 -1.13863,1.2227 c -3.10603,3.33535 -4.02795,8.11538 -2.51189,13.0238 0.64059,2.07399 1.54684,3.17722 3.26853,3.97894 1.67148,0.77833 1.68687,0.7775 1.87731,-0.10132 z m -53.303459,-6.64807 c 0,-0.45686 -2.20712,-1.66334 -3.56329,-1.94779 l -1.40247,-0.29417 0.12911,-1.47222 c 0.0885,-1.00886 -0.0113,-1.84677 -0.31708,-2.66227 -0.41489,-1.10662 -0.55434,-2.04935 -0.33551,-2.26818 0.20878,-0.20879 3.79441,1.02107 4.0924,1.40367 0.42631,0.54736 1.77344,3.82195 2.27372,5.52695 l 0.39809,1.35673 -0.63748,0.29046 c -0.35062,0.15975 -0.63749,0.18982 -0.63749,0.0669 z m -0.79337,-2.67127 c 0,-0.14392 -0.31383,-1.04561 -0.6974,-2.00377 -0.49868,-1.24567 -0.88037,-1.81164 -1.33951,-1.98621 -0.95762,-0.36409 -1.19007,-0.30035 -1.00709,0.27614 0.0909,0.28614 0.16954,1.09048 0.17493,1.7874 l 0.01,1.26713 1.23128,0.42176 c 1.58217,0.54197 1.62797,0.54865 1.62797,0.23755 z m 91.195199,27.88522 c 2.55177,-1.92872 5.31829,-3.37607 7.31518,-3.82707 1.78823,-0.40387 5.20914,-0.35175 7.12075,0.10849 l 1.56714,0.3773 1.34189,-0.60462 c 3.22293,-1.4522 4.20615,-3.95567 3.13394,-7.97957 l -0.45584,-1.7107 -1.34679,-0.77056 c -0.74074,-0.42381 -1.53566,-0.98259 -1.76651,-1.24174 -0.57021,-0.64013 -1.24266,-4.34489 -1.42957,-7.87599 -0.14794,-2.79513 0.73273,-16.42518 1.1278,-17.45472 0.0912,-0.23752 1.13171,-1.21268 2.31234,-2.16702 1.34382,-1.08624 2.113,-1.8907 2.05669,-2.15106 -0.17447,-0.80684 -2.13094,-4.46804 -2.83434,-5.30397 -1.62527,-1.93153 -4.28046,-2.47488 -7.38956,-1.51219 -2.64431,0.81878 -8.14133,0.88739 -12.15238,0.15169 l -3.26004,-0.59796 -1.71073,0.80055 c -2.93466,1.37329 -4.06369,3.56902 -3.74429,7.28186 l 0.17678,2.05498 2.27939,1.18198 c 1.25365,0.65009 2.63113,1.46521 3.06104,1.81138 l 0.78168,0.62939 0.4645,4.59629 c 0.67373,6.66654 0.88331,13.13058 0.51469,15.87496 -0.67574,5.03106 -1.70301,6.83975 -5.00133,8.80576 l -2.19433,1.30797 0.16542,1.46884 c 0.42551,3.77813 1.54812,6.20685 3.37051,7.29184 0.68958,0.41056 2.89398,1.0541 3.98362,1.16296 0.12202,0.0122 1.25258,-0.75689 2.51235,-1.70907 z m -4.42227,-2.93134 c -0.64284,-0.45026 -1.3532,-1.85377 -1.3532,-2.67361 0,-0.27442 0.39438,-0.68965 0.92789,-0.97697 2.43704,-1.31242 4.38316,-4.24044 5.46048,-8.21544 0.49801,-1.83753 0.57644,-2.84579 0.59658,-7.66927 0.0239,-5.72671 -0.70652,-15.97531 -1.24163,-17.42134 -0.41808,-1.12979 -2.51328,-3.09378 -4.33797,-4.06633 -0.88415,-0.47124 -1.65722,-1.06556 -1.71792,-1.3207 -0.3215,-1.35112 0.76595,-2.96118 2.04523,-3.02818 0.28338,-0.0148 1.73418,0.18228 3.22401,0.43804 3.71546,0.63785 9.61096,0.46521 12.62501,-0.36969 l 2.11092,-0.58474 0.82265,0.3923 c 0.47156,0.22487 1.01646,0.80069 1.27673,1.34916 l 0.45406,0.95686 -1.57132,1.54712 c -0.86423,0.85091 -1.69804,1.9485 -1.85293,2.43908 -0.24485,0.77557 -0.68488,6.05228 -1.23221,14.77637 -0.27428,4.3718 0.59315,11.02909 1.74868,13.42051 0.31075,0.64309 0.99829,1.43479 1.60765,1.85119 1.79248,1.22488 2.06189,1.57376 2.06189,2.67 0,0.68847 -0.17466,1.17491 -0.54085,1.50631 l -0.54084,0.48945 -1.84418,-0.31624 c -5.64598,-0.96818 -10.68596,0.30623 -15.4392,3.90394 -1.90493,1.44184 -2.34625,1.56287 -3.28953,0.90218 z m 2.7378,-2.06403 c 1.94735,-1.45656 5.31588,-3.13962 7.4129,-3.70379 2.35035,-0.63232 5.73618,-0.77732 8.13207,-0.34824 1.40346,0.25135 2.05942,0.27825 2.08088,0.0854 0.0703,-0.63213 -0.10459,-1.08809 -0.50452,-1.31529 -1.10221,-0.62615 -2.69544,-2.41224 -3.20187,-3.58946 -0.8966,-2.08419 -1.61305,-6.97547 -1.62183,-11.07234 -0.0111,-5.1618 0.76898,-16.06351 1.24734,-17.43241 0.21688,-0.62065 0.99123,-1.78156 1.7208,-2.57981 1.31353,-1.43723 1.4813,-2.07642 0.63065,-2.40285 -0.21329,-0.0819 -1.3763,0.10799 -2.58446,0.42186 -3.11558,0.80942 -7.9698,0.98741 -11.71711,0.42967 -1.59997,-0.23814 -3.15906,-0.50022 -3.46464,-0.58239 -0.57655,-0.15502 -1.42805,0.46203 -1.42757,1.03451 1.5e-4,0.17143 0.62109,0.66038 1.37986,1.08655 1.76138,0.98932 3.50696,2.59854 4.31571,3.97858 0.55643,0.94946 0.69767,1.79054 1.15722,6.8911 0.78263,8.68628 0.90257,11.82357 0.58104,15.19788 -0.33557,3.52154 -1.03285,6.2596 -2.1655,8.50337 -0.78201,1.54914 -2.89564,3.9433 -4.20443,4.76246 l -0.65483,0.40984 0.31859,0.6992 c 0.17521,0.38456 0.47222,0.6992 0.66001,0.6992 0.1878,0 1.04716,-0.52785 1.90969,-1.17299 z m 55.89331,2.50497 c 3.53636,-0.72067 6.57336,-1.80187 10.89028,-3.87704 5.20508,-2.50211 9.48069,-5.046 10.04748,-5.97801 0.83883,-1.37936 1.14369,-2.95445 0.89291,-4.61336 l -0.22987,-1.52061 -1.32228,-1.00055 c -1.15935,-0.87727 -1.50265,-1.00073 -2.78598,-1.00189 -0.80501,-7.9e-4 -2.11407,0.22559 -2.90903,0.50296 -2.05904,0.71839 -7.30022,1.8539 -10.5613,2.28811 -10.17264,1.35444 -15.47247,-1.17842 -17.3109,-8.2731 -0.22857,-0.88207 -0.41556,-2.59644 -0.41556,-3.80969 0,-1.87521 0.1077,-2.41884 0.71852,-3.62609 0.91868,-1.81569 2.59208,-3.71812 3.66475,-4.16632 1.18155,-0.49367 3.98624,-0.73576 6.01152,-0.51887 2.08722,0.22352 2.16371,0.38463 1.78104,3.75222 l -0.26071,2.29449 0.93058,1.26769 c 1.158,1.57753 2.34925,2.33027 3.99523,2.52458 2.36549,0.27925 4.58545,-0.72215 5.95735,-2.6873 0.60341,-0.86433 0.78103,-1.49708 0.98728,-3.51739 0.31261,-3.06199 0.73664,-3.82894 2.9099,-5.26321 0.92943,-0.61338 1.77541,-1.20841 1.87995,-1.32228 0.10457,-0.11387 0.0996,-1.35396 -0.0111,-2.75575 -0.30542,-3.86736 -1.73487,-6.50141 -4.36453,-8.04249 -1.44708,-0.84804 -4.95066,-2.0385 -5.14242,-1.74731 -0.0818,0.12407 -0.67482,1.0271 -1.318,2.00674 -1.34212,2.0442 -0.84997,2.00269 -5.30978,0.4478 -4.22563,-1.47325 -6.71648,-1.94414 -10.31384,-1.9498 -6.58932,-0.0104 -12.77932,2.66387 -17.25334,7.45391 -3.94824,4.22714 -6.01605,10.10041 -6.01807,17.09333 -0.002,7.67108 2.49434,14.45962 7.00728,19.05386 1.83362,1.86666 2.48585,2.33121 4.89246,3.48464 4.5656,2.18819 9.45708,3.69642 13.3551,4.11791 2.1058,0.22769 7.00355,-0.087 9.60517,-0.61718 z m -10.53077,-3.56825 c -4.26953,-0.705 -10.67588,-3.11134 -13.1356,-4.93399 -2.69501,-1.99698 -5.31239,-6.32742 -6.45554,-10.68062 -0.85808,-3.26778 -0.98425,-8.7513 -0.27987,-12.16503 1.3121,-6.35907 4.99409,-10.91028 11.04681,-13.6547 5.1347,-2.32819 11.58056,-2.13428 18.4769,0.55587 3.92851,1.53245 5.27553,1.36474 7.16164,-0.89162 l 0.97322,-1.16432 0.74443,0.25951 c 1.28658,0.4485 2.78989,2.34081 3.1362,3.94771 l 0.30753,1.42708 -0.60552,0.39668 c -2.48866,1.63032 -4.14006,4.35471 -4.35128,7.17851 -0.0692,0.92445 -0.17975,1.94641 -0.24576,2.27104 -0.13588,0.66827 -1.34733,1.39321 -2.3282,1.39321 -1.24605,0 -1.47046,-0.55636 -1.41678,-3.5126 0.0575,-3.16593 -0.26858,-4.34097 -1.5063,-5.42769 l -0.8753,-0.76853 -3.00928,-0.18203 c -6.87349,-0.4158 -9.91922,0.96328 -12.72047,5.75964 -1.60747,2.75241 -1.85831,3.79038 -1.7012,7.04024 0.24051,4.97506 1.69587,8.71226 4.47513,11.49152 3.03862,3.03861 6.30331,4.15926 12.22639,4.19683 4.3471,0.0276 7.91119,-0.46646 13.22288,-1.83287 4.91219,-1.26362 5.37414,-1.32785 5.58568,-0.7766 0.44288,1.15416 -0.7574,2.08479 -6.77903,5.25599 -8.11772,4.27508 -15.46348,5.8873 -21.94668,4.81677 z m 10.77561,-1.70845 c 1.19942,-0.29841 3.25282,-0.9566 4.56311,-1.46263 3.44019,-1.32861 10.77772,-5.05948 10.49887,-5.33832 -0.0567,-0.0567 -1.57939,0.2478 -3.38376,0.67669 -4.70057,1.1173 -8.41987,1.60634 -12.21679,1.60634 -5.48233,0 -9.01271,-0.99287 -12.26704,-3.44989 -5.01946,-3.78973 -7.685,-13.74224 -5.13819,-19.18468 1.79825,-3.84277 4.20822,-6.49938 6.86483,-7.56741 l 1.49342,-0.60038 4.76023,-0.003 4.76023,-0.003 0.99405,0.61805 c 0.54674,0.33992 1.32027,1.17296 1.71897,1.8512 l 0.72494,1.23315 v 2.98554 2.98554 l 0.66113,-0.0765 0.66115,-0.0765 0.19765,-1.78976 c 0.3755,-3.39998 1.94337,-6.47261 4.02682,-7.89152 0.51085,-0.34791 0.92702,-0.75157 0.92484,-0.89702 -0.0101,-0.67329 -1.0745,-2.51606 -1.6837,-2.91524 l -0.67783,-0.44411 -0.67781,0.80552 c -1.92231,2.28455 -4.02848,2.54481 -8.124,1.00387 -8.55086,-3.21727 -14.91675,-2.92143 -20.73343,0.96353 -4.72757,3.15756 -7.10195,7.34685 -7.75151,13.67661 -0.67582,6.58588 1.31009,13.48312 5.06077,17.57631 1.27238,1.38859 2.0471,1.95751 3.81394,2.80079 2.70551,1.29128 7.25819,2.84078 9.75681,3.32072 2.62569,0.50433 8.35627,0.29763 11.1723,-0.40297 z m -34.13898,-8.85181 c -1.80138,-4.49978 -2.59177,-10.13646 -2.08711,-14.88442 0.42828,-4.0294 1.16721,-6.65464 2.79727,-9.93811 0.77624,-1.56361 1.34127,-2.8396 1.25564,-2.83555 -0.27873,0.0132 -4.33286,3.55139 -4.53687,3.95949 -0.26962,0.53936 -0.79745,7.85364 -0.96698,13.39975 -0.10888,3.56187 -0.0414,5.12299 0.3132,7.24354 0.2486,1.48671 0.51625,2.87056 0.59478,3.07522 0.14109,0.36767 3.02561,1.97006 3.21668,1.7869 0.0544,-0.0521 -0.20964,-0.86516 -0.58661,-1.80682 z m 37.73613,46.63208 c -1.57156,-0.77793 -1.95789,-1.84677 -1.27212,-3.51959 0.16873,-0.41158 0.1116,-0.46453 -0.34491,-0.31965 -0.42271,0.13416 -0.70959,-0.0394 -1.26143,-0.76286 -0.89902,-1.17868 -1.18046,-1.18128 -1.18046,-0.0109 v 0.9256 h -3.43795 -3.43794 v -1.3223 c 0,-0.99905 0.0969,-1.32228 0.39669,-1.32228 0.33056,0 0.39668,-0.52892 0.39668,-3.17349 0,-3.38982 -0.0841,-3.57173 -1.33966,-2.89973 -0.45798,0.24512 -0.51154,0.57728 -0.51154,3.17349 0,2.40123 0.0682,2.89973 0.39668,2.89973 0.29971,0 0.39669,0.32323 0.39669,1.32228 v 1.32229 h -3.43795 -3.43794 v -1.32229 c 0,-0.99905 0.097,-1.32228 0.39669,-1.32228 0.33056,0 0.39668,-0.52892 0.39668,-3.17349 0,-2.64458 -0.0662,-3.17348 -0.39668,-3.17348 -0.29707,0 -0.39645,-0.31547 -0.39576,-1.25618 v -1.25617 l 2.70976,-0.73128 c 3.22082,-0.86896 3.37183,-0.87766 3.37183,-0.19433 0,0.64574 -0.0503,0.64552 1.35952,0.006 1.53613,-0.69704 2.8476,-0.6753 3.95663,0.0656 1.55064,1.0359 1.82332,1.94902 1.82377,6.10728 v 3.66631 l 1.232,-0.18475 c 0.67762,-0.10161 1.53037,-0.29818 1.89503,-0.43682 l 0.663,-0.25207 -0.95367,-0.9816 c -3.31359,-3.41072 -1.03667,-8.09406 4.1143,-8.46261 l 1.8864,-0.13498 0.83574,-0.88613 c 0.68222,-0.72336 1.03357,-0.88613 1.91284,-0.88613 0.59241,0 1.14405,0.1083 1.22584,0.24068 0.0819,0.13239 -0.009,0.99518 -0.2023,1.91732 l -0.35105,1.67663 0.47545,1.05784 c 1.1328,2.52043 0.34987,4.74157 -2.2576,6.40479 l -1.02792,0.65566 1.04871,0.46952 c 1.43529,0.6426 2.19719,1.67694 2.19719,2.98287 0,2.78803 -4.70644,4.64363 -7.84166,3.09171 z m 4.74839,-0.26725 c 0.55319,-0.15362 1.38353,-0.61681 1.84519,-1.0293 0.69087,-0.61729 0.83936,-0.94672 0.83936,-1.86194 0,-1.51852 -1.08604,-2.4956 -3.27692,-2.94811 l -1.58928,-0.32827 1.09592,-0.37045 c 2.89901,-0.97996 4.17644,-2.46643 4.17803,-4.86167 0,-1.30821 -0.11756,-1.65567 -0.92462,-2.71297 -1.06369,-1.3935 -1.11834,-1.56931 -0.41896,-1.34732 0.5964,0.18929 0.68785,0.0658 0.92513,-1.24911 l 0.17892,-0.99172 h -0.93757 c -0.98757,0 -1.99541,0.73465 -1.99541,1.45452 0,0.3156 -0.39194,0.39787 -1.91732,0.40249 -2.1077,0.006 -3.6247,0.53685 -4.61039,1.61217 -2.04399,2.22984 -1.20775,5.82425 1.60414,6.895 l 0.76225,0.29027 -0.63002,0.34317 c -0.34652,0.18875 -1.19532,0.481 -1.88621,0.64945 -0.6909,0.16845 -1.25617,0.37599 -1.25617,0.4612 0,0.0852 0.25874,0.43034 0.575,0.76699 0.4445,0.47314 0.86007,0.61207 1.83087,0.61207 h 1.25585 l -0.77303,0.77303 c -2.3213,2.32129 1.03712,4.57572 5.12524,3.4405 z m -2.16364,-1.37805 c -0.32624,-0.32623 -0.38891,-1.22963 -0.13178,-1.89966 l 0.16489,-0.42974 0.49626,0.4491 c 0.57773,0.52284 0.66249,1.83346 0.13177,2.03713 -0.20045,0.0769 -0.49797,0.006 -0.66114,-0.15683 z m 0.38782,-1.18129 c -0.28889,-0.28889 -0.48699,0.17054 -0.27957,0.64841 l 0.20582,0.47421 0.1147,-0.4835 c 0.0631,-0.26593 0.0447,-0.55353 -0.041,-0.63912 z m -0.78696,-6.27506 c -1.11787,-1.20618 -1.64866,-4.47895 -0.83584,-5.15351 0.94662,-0.78564 2.14194,0.62406 2.51152,2.96199 0.36508,2.30955 -0.50803,3.45144 -1.67568,2.19152 z m 1.15446,-1.26331 c -0.01,-2.27964 -1.41221,-4.61771 -1.942,-3.23707 -0.15864,0.4134 0.22178,2.84388 0.53056,3.38976 0.32021,0.56607 0.96712,1.23571 1.19379,1.23571 0.12289,0 0.22085,-0.62477 0.21765,-1.3884 z m -15.06826,5.35526 c 0,-0.5289 -0.13222,-0.79337 -0.39668,-0.79337 -0.33147,0 -0.39669,-0.54408 -0.39669,-3.30999 v -3.31 l 0.93986,-0.44818 c 1.64328,-0.78363 1.8251,-0.44181 1.91073,3.59246 0.0632,2.97472 0.0156,3.47571 -0.33057,3.47571 -0.27298,0 -0.40435,0.25777 -0.40435,0.79337 v 0.79338 h 2.90902 2.90903 v -0.79338 c 0,-0.5289 -0.13222,-0.79337 -0.39668,-0.79337 -0.33618,0 -0.39669,-0.64939 -0.39669,-4.25776 v -4.25776 l -0.89915,-0.89916 c -0.75013,-0.75012 -1.08983,-0.89819 -2.04954,-0.89335 -1.15836,0.006 -3.17852,0.74696 -3.51348,1.28895 -0.3666,0.59312 -0.73625,0.27858 -0.61815,-0.526 l 0.12005,-0.81799 -0.79808,0.15961 c -0.43892,0.0878 -1.61003,0.40143 -2.60237,0.69697 l -1.80431,0.53734 v 0.81047 c 0,0.61176 0.0972,0.77315 0.39668,0.65824 0.34133,-0.13098 0.39669,0.38158 0.39669,3.67411 0,3.22488 -0.0624,3.82633 -0.39669,3.82633 -0.26446,0 -0.39668,0.26447 -0.39668,0.79337 v 0.79338 h 2.90902 2.90903 z m -104.46066,1.16513 c -2.05013,-0.88801 -3.4072,-2.91748 -3.63567,-5.43704 -0.18924,-2.08691 0.30705,-3.67556 1.61099,-5.15693 1.85441,-2.1067 4.36644,-2.75372 6.65494,-1.71407 2.34662,1.06604 4.56739,4.99949 3.10511,5.4998 -1.00273,0.34309 -5.23078,2.03049 -5.35526,2.13727 -0.0728,0.0624 0.14871,0.3412 0.4921,0.61958 0.85083,0.68979 2.10367,0.63559 3.24564,-0.14041 l 0.95149,-0.64655 0.74733,0.78005 0.74734,0.78005 -0.53807,0.72599 c -0.79529,1.07308 -2.61294,2.38569 -3.7352,2.69736 -1.39028,0.38612 -3.20609,0.32471 -4.29074,-0.1451 z m 5.73152,-1.06405 c 0.67412,-0.41923 1.46647,-1.08658 1.76076,-1.48303 l 0.53507,-0.72081 -0.47235,-0.52195 -0.47236,-0.52195 -0.70715,0.52282 c -1.14942,0.84981 -2.39017,0.91779 -3.46464,0.18984 -1.5517,-1.05128 -1.37442,-1.31818 1.68851,-2.54222 1.52254,-0.60847 2.89564,-1.10629 3.05131,-1.10629 0.36897,0 0.35934,-0.0988 -0.12183,-1.25043 -1.37047,-3.28001 -4.44109,-4.62422 -7.44641,-3.25977 -4.10299,1.86278 -4.32449,8.92379 -0.3469,11.05794 1.66704,0.89444 4.22155,0.73929 5.99599,-0.36415 z m -4.75363,-6.08722 c -0.2269,-0.22691 -0.24349,-2.0151 -0.024,-2.58708 0.28602,-0.74535 1.38567,-0.49758 1.95804,0.44117 0.69576,1.14112 0.66346,1.41912 -0.20124,1.73216 -0.39999,0.1448 -0.91199,0.33866 -1.13776,0.43079 -0.22577,0.0922 -0.49354,0.0845 -0.59503,-0.017 z m 1.90085,-1.06727 c 0.22785,-0.15742 -0.80331,-1.40922 -1.16083,-1.40922 -0.43264,0 -0.79813,1.11 -0.56529,1.71678 0.12613,0.3287 0.27642,0.34211 0.888,0.0793 0.4049,-0.17402 0.78205,-0.3481 0.83812,-0.38683 z m 16.28203,8.3053 c -3.00796,-1.21804 -4.54017,-3.43359 -4.80698,-6.95085 -0.4198,-5.53387 3.52573,-10.21472 8.6496,-10.26164 1.29297,-0.0118 2.04857,0.1394 3.00157,0.60074 0.94366,0.45681 1.35073,0.53945 1.57124,0.31895 0.16368,-0.16369 0.38779,-0.29761 0.49802,-0.29761 0.22705,0 1.66255,2.36034 1.51102,2.48452 -0.0541,0.0443 -1.05029,0.70967 -2.21391,1.47863 -1.16361,0.76895 -2.23466,1.5118 -2.38011,1.65074 -0.16869,0.16116 0.57493,0.21993 2.05342,0.1623 l 2.31788,-0.0904 0.50771,0.77341 c 0.44963,0.68495 0.46431,0.83536 0.12835,1.31502 -0.29059,0.41487 -0.37936,1.51794 -0.37936,4.71408 v 4.17247 h -1.05174 c -0.82648,0 -1.14334,-0.13983 -1.47953,-0.65292 l -0.42781,-0.65291 -1.36338,0.69621 c -1.58809,0.81098 -4.77357,1.0909 -6.13599,0.53922 z m 6.27585,-1.18177 1.42888,-0.80642 0.43896,0.76484 c 0.29661,0.51681 0.64965,0.76484 1.08867,0.76484 h 0.64971 l 0.0899,-4.08634 c 0.0585,-2.66073 0.19805,-4.19437 0.39997,-4.39599 0.50588,-0.5051 -0.13625,-1.64063 -0.8234,-1.45607 -0.2995,0.0805 -1.88336,0.14788 -3.51969,0.14987 l -2.97514,0.004 v 0.9256 0.9256 h 1.32228 1.32229 v 2.51236 2.51234 h -0.8865 c -3.60919,0 -5.9697,-7.71301 -3.20623,-10.47647 1.16181,-1.16181 2.95678,-0.53787 2.65419,0.9226 -0.0916,0.4418 0.0243,0.91127 0.3183,1.29012 l 0.46218,0.59556 2.24634,-1.48896 c 1.23549,-0.81893 2.35023,-1.58353 2.47721,-1.69914 0.12736,-0.11595 -0.0324,-0.57988 -0.35639,-1.03488 -0.45189,-0.63462 -0.66807,-0.75762 -0.93796,-0.53363 -0.2623,0.21768 -0.63918,0.14115 -1.49482,-0.30357 -1.54161,-0.80125 -4.33528,-0.82651 -6.04999,-0.0547 -3.46896,1.5614 -5.49834,5.11132 -5.21175,9.11674 0.22813,3.1884 1.80031,5.52176 4.36517,6.47858 1.66685,0.62183 4.49202,0.33627 6.19788,-0.62646 z m -1.16107,-4.632 -0.0777,-1.91732 -1.25617,-0.0806 -1.25617,-0.0806 v -1.44003 -1.44003 h 0.9256 c 1.0577,0 1.11177,-0.13909 0.40942,-1.05317 -0.36164,-0.47068 -0.42645,-0.75041 -0.22899,-0.98835 0.4659,-0.56136 0.0315,-1.17632 -0.76541,-1.08357 -0.47273,0.0551 -0.93602,0.4019 -1.34818,1.00943 l -0.62796,0.9256 0.10681,2.38012 c 0.11721,2.61192 0.53064,3.71308 1.86041,4.95527 0.48659,0.45455 1.07562,0.73056 1.55905,0.73056 h 0.77699 z m 8.53596,5.68542 c -2.55482,-1.30273 -2.99996,-4.82518 -0.88453,-6.99939 l 0.95682,-0.98338 -0.55405,-0.20667 -0.55405,-0.20667 0.91677,-2.36966 c 0.50422,-1.3033 0.96308,-2.41596 1.01969,-2.47258 0.0566,-0.0566 0.55719,0.0505 1.11237,0.23796 0.5552,0.18749 1.72347,0.31383 2.59619,0.28075 1.21924,-0.0462 1.85783,0.08 2.75723,0.54495 1.8409,0.95166 2.13523,1.77383 2.13523,5.96453 0,2.8818 0.0716,3.54396 0.39668,3.66871 0.27783,0.10661 0.39669,0.53995 0.39669,1.44621 v 1.29399 h -2.75477 c -1.81583,0 -2.78878,-0.10205 -2.85457,-0.29941 -0.069,-0.20703 -0.35735,-0.16622 -0.9345,0.13223 -1.08526,0.56121 -2.61392,0.54834 -3.7512,-0.0316 z m 3.93213,-0.62225 0.90968,-0.55455 0.30954,0.42332 c 0.24245,0.33157 0.80474,0.42332 2.59438,0.42332 h 2.28486 v -0.79338 c 0,-0.5289 -0.13224,-0.79337 -0.39669,-0.79337 -0.3331,0 -0.39763,-0.58291 -0.4025,-3.63629 -0.007,-4.30559 -0.37512,-5.5027 -1.91793,-6.23481 -1.03803,-0.49257 -3.22425,-0.58386 -4.28891,-0.17907 -0.45733,0.17387 -0.63821,0.17425 -0.53121,0.001 0.15462,-0.25019 -1.09189,-0.998 -1.28442,-0.77055 -0.13204,0.15606 -1.49218,3.79005 -1.49218,3.98682 0,0.0903 0.29121,0.23716 0.64714,0.3265 0.45036,0.11303 0.94409,-0.0391 1.62365,-0.50025 1.12034,-0.76028 2.00555,-0.84432 2.60278,-0.24709 0.81327,0.81327 0.49796,1.0942 -1.3788,1.22848 -3.39829,0.24314 -4.81427,1.48382 -4.81607,4.21982 -8e-4,1.24063 0.12116,1.64552 0.70469,2.33901 0.38814,0.46127 0.95341,0.93887 1.25617,1.06136 1.01193,0.40937 2.63534,0.27302 3.57582,-0.30033 z m -0.89078,-2.5036 c -1.00538,-1.00537 -0.0935,-3.28683 1.3137,-3.28683 h 0.65084 v 1.26344 c 0,1.98305 -0.98765,3.00028 -1.96454,2.02339 z m 1.27511,-0.53166 c 0.2967,-0.77318 0.17707,-2.22626 -0.18328,-2.22626 -0.61295,0 -0.97849,0.61252 -0.97849,1.63964 0,0.8097 0.0973,1.00494 0.50062,1.00494 0.27534,0 0.57286,-0.18824 0.66115,-0.41832 z m -0.10394,-5.13528 c 0,-0.33684 -1.06553,-0.33684 -1.58675,0 -0.29507,0.19068 -0.14264,0.25739 0.59503,0.2604 0.54545,0.002 0.99172,-0.11495 0.99172,-0.2604 z m 9.5843,8.92067 c -1.33534,-0.77543 -1.51227,-1.3857 -1.60872,-5.54885 l -0.0904,-3.90074 h -0.50466 c -0.41756,0 -0.5045,-0.19398 -0.50372,-1.12395 l 0.001,-1.12394 1.38746,-0.66115 c 1.25158,-0.59638 1.70374,-1.05804 2.71207,-2.769 0.21847,-0.37071 0.43393,-0.40956 1.19005,-0.21462 l 0.92329,0.23806 0.08,1.37279 0.08,1.37277 h 1.00987 1.00987 l -0.22564,1.20774 c -0.28915,1.54713 -0.39574,1.7013 -1.17633,1.7013 h -0.64553 v 2.99718 c 0,1.64846 0.0752,3.07234 0.167,3.16418 0.0919,0.0919 0.41312,0.0353 0.71395,-0.12572 0.45444,-0.2432 0.61058,-0.1969 0.92309,0.27376 0.20687,0.31157 0.59963,0.56649 0.87279,0.56649 h 0.49666 v -5.05298 c 0,-4.38289 -0.0526,-5.0328 -0.39669,-4.90077 -0.32157,0.1234 -0.39668,-0.11072 -0.39668,-1.23647 v -1.3887 l 3.10737,-1.0198 c 1.70905,-0.56089 3.25613,-1.07553 3.43795,-1.14365 0.23988,-0.0898 0.33056,0.28299 0.33056,1.35898 0,1.14174 -0.0913,1.48281 -0.39668,1.48281 -0.29972,0 -0.39669,0.32323 -0.39669,1.32228 0,0.72726 0.0465,1.32229 0.10335,1.32229 0.0569,0 0.62213,-0.2354 1.25617,-0.52311 2.17441,-0.98665 4.34677,-0.44012 5.2976,1.33278 0.40332,0.75204 0.48323,1.52498 0.48323,4.6737 0,3.17716 0.0626,3.77264 0.39669,3.77264 0.29972,0 0.39668,0.32323 0.39668,1.32228 v 1.32229 h -3.43794 -3.43794 v -1.32229 c 0,-0.99905 0.097,-1.32228 0.39668,-1.32228 0.33057,0 0.39669,-0.52892 0.39669,-3.17349 0,-3.38982 -0.0841,-3.57173 -1.33967,-2.89973 -0.45799,0.24512 -0.51154,0.57728 -0.51154,3.17349 0,2.40123 0.0682,2.89973 0.39669,2.89973 0.29972,0 0.39668,0.32323 0.39668,1.32228 v 1.32229 h -3.43794 -3.43794 v -0.78792 -0.78792 l -1.18743,0.83698 c -0.93214,0.65703 -1.51488,0.85608 -2.71069,0.9259 -0.93249,0.0545 -1.75491,-0.0456 -2.12057,-0.25791 z m 3.71317,-0.55377 c 1.95578,-0.82779 2.3379,-2.52182 0.52654,-2.33425 -1.02439,0.10607 -1.12175,-0.24964 -1.12645,-4.11534 l -0.004,-2.97515 h 0.89668 0.89666 l 0.109,-0.93369 c 0.13227,-1.13297 0.09,-1.18196 -1.02081,-1.18196 h -0.88114 v -1.30447 c 0,-1.08799 -0.091,-1.33338 -0.54884,-1.47867 -0.30186,-0.0958 -0.57458,-0.13357 -0.60603,-0.084 -1.29089,2.03756 -1.58138,2.34048 -2.78706,2.90622 -1.11173,0.52167 -1.32728,0.73929 -1.33637,1.34925 -0.008,0.55456 0.11475,0.72725 0.51807,0.72725 h 0.52892 v 3.7109 c 0,5.15933 0.42114,6.01432 2.98364,6.05727 0.5501,0.009 1.38315,-0.14532 1.85119,-0.34343 z m 8.65249,-0.69765 c 0,-0.5289 -0.13222,-0.79337 -0.39669,-0.79337 -0.3314,0 -0.39668,-0.54285 -0.39668,-3.29892 v -3.29893 l 0.82185,-0.42499 c 1.14868,-0.59401 1.9794,-0.32587 2.18567,0.7055 0.0913,0.45641 0.16597,2.06454 0.16597,3.5736 0,2.26258 -0.0696,2.74374 -0.39669,2.74374 -0.26445,0 -0.39668,0.26447 -0.39668,0.79337 v 0.79338 h 2.90902 2.90904 v -0.79338 c 0,-0.5289 -0.13223,-0.79337 -0.39668,-0.79337 -0.33258,0 -0.39693,-0.5663 -0.39816,-3.50406 -0.002,-4.11475 -0.24615,-5.20377 -1.38245,-6.15991 -0.73551,-0.61889 -1.01438,-0.69192 -2.25069,-0.5894 -1.03097,0.0855 -1.72892,0.34101 -2.59068,0.94843 l -1.17952,0.83141 v -2.09239 c 0,-1.86013 0.0587,-2.11102 0.52891,-2.26026 0.60726,-0.19274 0.77437,-1.71897 0.18822,-1.71897 -0.18739,0 -1.5262,0.39669 -2.97514,0.88154 l -2.63445,0.88154 -0.0829,0.83743 c -0.0612,0.6185 0.0252,0.83743 0.33057,0.83743 0.36182,0 0.41344,0.69335 0.41344,5.55361 0,4.76023 -0.0567,5.5536 -0.39668,5.5536 -0.26446,0 -0.39669,0.26447 -0.39669,0.79337 v 0.79338 h 2.90903 2.90903 z m 11.76609,1.09354 c -2.00922,-0.91276 -3.56791,-3.52783 -3.56791,-5.986 0,-1.50614 0.79165,-3.56668 1.80001,-4.6851 2.53728,-2.81421 6.152,-2.73153 8.73221,0.19975 l 1.12351,1.27637 0.8497,-1.0376 c 0.46731,-0.57068 1.16379,-1.39195 1.54771,-1.82504 l 0.69803,-0.78742 1.34572,0.83653 1.3457,0.83652 0.7991,-0.7991 c 0.6325,-0.63253 0.9891,-0.78273 1.71059,-0.72057 0.50131,0.0432 0.98402,0.006 1.07269,-0.0827 0.30096,-0.30096 2.06121,0.41957 2.18543,0.89455 0.1303,0.49827 0.4153,0.55654 1.20304,0.24596 l 0.48007,-0.18927 -0.54618,-0.49427 c -0.33584,-0.30394 -0.54616,-0.82119 -0.54616,-1.34322 0,-1.79322 2.01297,-3.10822 3.83667,-2.50636 1.10847,0.36584 1.51394,1.02492 1.43619,2.33456 -0.0317,0.53378 -0.041,3.32086 -0.0206,6.19353 0.0315,4.44996 0.0957,5.22303 0.43366,5.22303 0.29971,0 0.39668,0.32323 0.39668,1.32228 v 1.32229 h -3.43794 -3.43795 v -1.3223 c 0,-0.99905 0.0969,-1.32228 0.39669,-1.32228 0.33057,0 0.39668,-0.52892 0.39668,-3.17349 0,-2.58237 -0.0708,-3.17348 -0.37992,-3.17348 -0.23521,0 -0.41174,-0.3274 -0.46343,-0.8595 l -0.0835,-0.85948 -0.55677,1.58675 c -0.44035,1.255 -0.66138,1.57125 -1.05719,1.51267 -0.27525,-0.0408 -0.93862,-0.14458 -1.47411,-0.23074 l -0.97366,-0.15668 -0.16594,0.89189 c -0.0913,0.49053 -0.12917,1.66542 -0.0842,2.61085 l 0.0818,1.71899 0.59503,0.0845 c 0.52519,0.0746 0.59503,0.23756 0.59503,1.3884 v 1.30389 h -3.57017 -3.57018 v -1.32225 c 0,-0.99905 0.0969,-1.32228 0.39669,-1.32228 0.32297,0 0.39668,-0.4385 0.39668,-2.35977 v -2.35978 l -0.8137,-0.81371 c -0.99556,-0.99555 -1.0991,-1.01018 -0.75564,-0.10677 0.35631,0.93712 0.15695,1.09104 -2.99163,2.30976 -1.41764,0.54873 -2.64134,1.10092 -2.71933,1.22711 -0.18991,0.30729 1.27396,1.04533 2.07335,1.04533 0.35055,0 1.08586,-0.30436 1.63403,-0.67635 l 0.99667,-0.67636 0.7391,0.8747 0.73912,0.8747 -1.10384,1.15496 c -2.15025,2.24984 -5.28012,3.02931 -7.71755,1.922 z m 5.15919,-0.58539 c 1.26513,-0.57202 2.90903,-1.99102 2.90903,-2.51107 0,-0.17183 -0.18378,-0.46495 -0.40841,-0.65137 -0.33803,-0.28055 -0.58347,-0.24057 -1.42441,0.23207 -1.19961,0.67422 -1.88338,0.71423 -2.93271,0.17161 -0.67737,-0.35029 -1.51525,-1.37973 -1.2723,-1.5632 0.0482,-0.0364 1.3966,-0.58832 2.99657,-1.22658 1.59997,-0.63824 2.95064,-1.18536 3.0015,-1.2158 0.27558,-0.16493 -0.63484,-2.01697 -1.47263,-2.99575 -1.15277,-1.34675 -2.24671,-1.85527 -3.99113,-1.85527 -3.62922,0 -6.20601,3.69959 -5.36413,7.70147 0.35517,1.68822 1.71141,3.50736 3.0493,4.09002 1.22067,0.5316 3.52701,0.44886 4.90932,-0.17613 z m -4.04679,-6.49429 c -0.30741,-0.30741 -0.20655,-2.34869 0.13282,-2.68806 0.51239,-0.51239 1.19151,-0.36754 1.77911,0.37946 0.75222,0.9563 0.69335,1.57899 -0.17914,1.89485 -0.4,0.1448 -0.91199,0.33866 -1.13776,0.43079 -0.22577,0.0922 -0.49354,0.0845 -0.59503,-0.017 z m 1.90084,-1.06727 c 0.22973,-0.15872 -0.80482,-1.40922 -1.16587,-1.40922 -0.27902,0 -0.39059,0.30051 -0.39059,1.05216 v 1.05216 l 0.72726,-0.31233 c 0.39999,-0.17179 0.77313,-0.34404 0.8292,-0.38277 z m 12.72424,7.05341 c 0,-0.61706 -0.11753,-0.79337 -0.52891,-0.79337 h -0.52892 v -2.87665 c 0,-3.4066 0.13435,-3.62588 2.06468,-3.36981 l 1.2678,0.16818 0.59702,-1.8537 c 0.32837,-1.01954 0.53246,-1.95817 0.45354,-2.08586 -0.20625,-0.33373 -1.18485,-0.5499 -1.34157,-0.29634 -0.0729,0.11796 -0.5891,0.15322 -1.14713,0.0784 l -1.0146,-0.13609 -0.82262,0.99798 -0.82264,0.99799 -1.07251,-0.96896 c -0.5899,-0.53293 -1.22094,-0.96231 -1.40234,-0.95419 -0.18139,0.008 -0.85443,0.67896 -1.49563,1.49078 -1.24076,1.57089 -1.25821,2.23583 -0.0634,2.4136 l 0.56803,0.0845 v 3.15509 c 0,2.62822 -0.0663,3.15509 -0.39669,3.15509 -0.26446,0 -0.39669,0.26447 -0.39669,0.79337 v 0.79338 h 3.04127 3.04125 z m 10.04938,0 c 0,-0.53828 -0.131,-0.79337 -0.40752,-0.79337 -0.3558,0 -0.39775,-0.65707 -0.33058,-5.17704 l 0.077,-5.17705 -0.77414,0.15513 c -0.42581,0.0854 -1.58612,0.39693 -2.57847,0.69247 l -1.80431,0.53734 v 0.81047 c 0,0.61176 0.0973,0.77315 0.39668,0.65824 0.34134,-0.13098 0.3967,0.38158 0.3967,3.67411 0,3.22488 -0.0624,3.82633 -0.3967,3.82633 -0.26445,0 -0.39668,0.26447 -0.39668,0.79337 v 0.79338 h 2.90903 2.90903 z m -1.99623,-11.4815 c 2.38221,-0.99535 1.5072,-3.71703 -1.03231,-3.21105 -1.77816,0.35428 -2.64497,2.30754 -1.40839,3.17367 0.72758,0.50961 1.28989,0.51822 2.4407,0.0374 z M 99.522321,209.39674 v -1.58675 h 0.661139 0.66115 v -5.15691 c 0,-4.28267 -0.0638,-5.15692 -0.37618,-5.15692 -0.2069,0 -0.513639,0.41652 -0.681649,0.9256 l -0.30547,0.92559 h -1.34003 -1.34002 l 0.16859,-1.78508 c 0.0928,-0.9818 0.16944,-2.35037 0.17047,-3.04126 l 0.002,-1.25617 h 1.30668 c 0.71868,0 1.38023,0.119 1.47013,0.26446 0.0967,0.15655 1.721719,0.26445 3.982459,0.26445 2.36971,0 3.81903,-0.10036 3.81903,-0.26445 0,-0.14546 0.58555,-0.26446 1.30124,-0.26446 h 1.30123 l 0.14511,1.65285 c 0.0798,0.90908 0.19082,2.27765 0.24669,3.04127 l 0.10158,1.38839 h -1.4157 -1.41569 v -0.60825 c 0,-0.67296 -0.44871,-1.24294 -0.9785,-1.24294 -0.27033,0 -0.34379,1.1019 -0.34379,5.15692 v 5.15691 h 0.66114 0.66115 v 1.58675 1.58674 h -4.23134 -4.231319 z m 8.198179,0 v -1.05783 h -0.66114 -0.66115 v -5.83589 -5.83588 l 0.59503,0.17303 c 0.6915,0.20108 1.52064,1.07942 1.52064,1.61088 0,0.24609 0.31701,0.3674 0.9602,0.3674 h 0.9602 l -0.16392,-0.99172 c -0.0902,-0.54544 -0.16523,-1.676 -0.16683,-2.51235 l -0.003,-1.52063 h -0.9256 c -0.50908,0 -0.9256,0.11901 -0.9256,0.26446 0,0.16562 -1.63082,0.26446 -4.36355,0.26446 -2.73273,0 -4.363539,-0.0989 -4.363539,-0.26446 0,-0.14545 -0.41653,-0.26446 -0.92561,-0.26446 h -0.9256 v 1.28538 c 0,0.70695 -0.0757,1.83751 -0.16817,2.51234 l -0.16818,1.22698 h 0.96155 c 0.64432,0 0.96154,-0.12122 0.96154,-0.3674 0,-0.53146 0.829139,-1.4098 1.520639,-1.61088 l 0.59503,-0.17303 v 5.83588 5.83589 h -0.66115 -0.66115 v 1.05783 1.05783 h 3.83464 3.83463 z m 3.43795,0.26445 c 0,-0.99905 0.097,-1.32228 0.39669,-1.32228 0.33877,0 0.39668,-0.73775 0.39668,-5.05298 0,-4.38289 -0.0526,-5.0328 -0.39668,-4.90077 -0.32158,0.1234 -0.39669,-0.11072 -0.39669,-1.23647 v -1.3887 l 3.10737,-1.0198 c 1.70905,-0.56089 3.25613,-1.07553 3.43794,-1.14365 0.23987,-0.0898 0.33057,0.28299 0.33057,1.35898 0,1.14174 -0.0912,1.48281 -0.39668,1.48281 -0.29972,0 -0.39668,0.32323 -0.39668,1.32228 0,0.72726 0.0465,1.32229 0.10334,1.32229 0.0569,0 0.62212,-0.2354 1.25617,-0.52311 1.53614,-0.69704 2.84761,-0.6753 3.95664,0.0656 1.54794,1.0341 1.82331,1.95171 1.82378,6.07725 2.7e-4,3.05577 0.0638,3.63629 0.3971,3.63629 0.29972,0 0.39668,0.32323 0.39668,1.32228 v 1.32229 h -3.43794 -3.43794 v -1.32228 c 0,-0.99905 0.0969,-1.32228 0.39668,-1.32228 0.33057,0 0.39669,-0.52892 0.39669,-3.17349 0,-3.38982 -0.0841,-3.57173 -1.33967,-2.89973 -0.458,0.24512 -0.51153,0.57728 -0.51153,3.17349 0,2.40123 0.0682,2.89973 0.39668,2.89973 0.29972,0 0.39668,0.32323 0.39668,1.32228 v 1.32229 h -3.43794 -3.43794 z m 6.34697,0 c 0,-0.5289 -0.13223,-0.79337 -0.39668,-0.79337 -0.33148,0 -0.39669,-0.54408 -0.39669,-3.30999 v -3.31 l 0.93984,-0.44818 c 1.6433,-0.78363 1.8251,-0.44181 1.91075,3.59246 0.0632,2.97472 0.0155,3.47571 -0.33057,3.47571 -0.27299,0 -0.40437,0.25777 -0.40437,0.79337 v 0.79338 h 2.90904 2.90903 v -0.79338 c 0,-0.5289 -0.13223,-0.79337 -0.39669,-0.79337 -0.33618,0 -0.39668,-0.64939 -0.39668,-4.25776 v -4.25776 l -0.89916,-0.89916 c -0.73243,-0.73243 -1.10178,-0.89916 -1.99192,-0.89916 -1.26853,0 -2.79548,0.57764 -3.65063,1.38101 l -0.59864,0.5624 v -2.13347 c 0,-1.65245 0.0895,-2.16778 0.39669,-2.28569 0.40629,-0.1559 0.57779,-1.75556 0.18821,-1.75556 -0.11466,0 -1.39397,0.39669 -2.84291,0.88154 l -2.63445,0.88154 -0.0856,0.87317 c -0.0691,0.7046 -0.005,0.84236 0.33057,0.71351 0.37055,-0.14219 0.41611,0.46203 0.41611,5.51785 0,4.87041 -0.0564,5.67754 -0.39668,5.67754 -0.26446,0 -0.3967,0.26447 -0.3967,0.79337 v 0.79338 h 2.90904 2.90903 z m 144.84797,-12.79378 c -3.22788,-1.20252 -5.16673,-4.15898 -4.89291,-7.46096 0.28189,-3.39914 2.92173,-6.07962 6.28808,-6.38486 4.85054,-0.43984 8.50413,4.29738 7.13009,9.24486 -0.92563,3.3329 -5.41929,5.75805 -8.52526,4.60096 z m 5.19473,-1.17198 c 1.63832,-0.91715 2.9441,-2.87471 3.21074,-4.81331 0.37441,-2.72249 -1.27718,-5.80411 -3.70278,-6.90881 -1.31404,-0.59846 -3.76806,-0.63855 -5.09929,-0.0833 -2.1841,0.91097 -4.01693,3.62512 -4.0219,5.9559 -0.0111,5.20437 5.15285,8.34657 9.61323,5.84953 z m -5.25455,-0.54369 c -1.13799,-0.51697 -2.6551,-2.06727 -3.05671,-3.12355 -0.42582,-1.12006 -0.2886,-3.46257 0.26661,-4.55087 0.92735,-1.81777 3.02799,-3.19708 4.87735,-3.20256 1.84185,-0.005 4.15339,1.52836 4.9515,3.28554 2.09553,4.61382 -2.55424,9.62871 -7.03875,7.59144 z m 3.98471,-0.42398 0.51333,-0.38827 -0.46525,-0.008 c -0.30582,-0.006 -0.75627,-0.59848 -1.31428,-1.73006 -0.46692,-0.9469 -0.97159,-1.68125 -1.12145,-1.63187 -0.14987,0.0494 -0.30794,0.82412 -0.35122,1.72165 l -0.0788,1.63187 -0.84686,0.008 -0.84688,0.008 0.51334,0.38827 c 0.30992,0.2344 1.10213,0.38828 1.999,0.38828 0.89688,0 1.6891,-0.15388 1.99901,-0.38828 z m -5.22726,-6.67387 -0.0775,-2.06163 -0.72446,1.06661 c -1.29306,1.90373 -1.23504,4.36024 0.14447,6.11893 l 0.57999,0.73938 0.0775,-1.90082 c 0.0426,-1.04547 0.0426,-2.82857 0,-3.96247 z m 2.17043,4.02089 v -1.71897 h 0.67219 c 0.57192,0 0.78727,0.25644 1.44347,1.71897 0.6562,1.46253 0.87154,1.71897 1.44346,1.71897 0.82952,0 0.8315,-0.13252 0.028,-1.86687 l -0.64423,-1.39049 0.77645,-0.7253 c 0.99415,-0.92868 1.04411,-2.12069 0.12734,-3.03748 l -0.64914,-0.64912 h -2.39212 -2.39215 v 3.65833 c 0,2.01208 0.0794,3.73766 0.17632,3.83462 0.0969,0.097 0.45396,0.17631 0.79337,0.17631 h 0.61706 z m 0,-3.86466 v -1.35232 l 1.25617,0.18025 c 2.67678,0.38407 2.34251,2.50806 -0.39668,2.52049 l -0.85949,0.004 z m 2.35252,0.58158 c 0.57274,-0.36264 0.16289,-0.98729 -0.77022,-1.17391 -1.048,-0.20961 -1.31785,-0.0519 -1.31785,0.77019 0,0.55283 0.12345,0.64496 0.85949,0.64149 0.47271,-0.002 1.02559,-0.10922 1.22858,-0.23777 z m 3.34579,3.28719 c 1.36529,-3.57495 -0.97783,-7.13565 -4.69565,-7.13565 -0.84764,0 -1.65748,0.14356 -1.84012,0.32617 -0.25856,0.25858 0.0428,0.32616 1.45419,0.32616 1.98701,0 3.42772,0.47897 3.85775,1.28251 0.4912,0.91785 0.33792,2.31722 -0.34249,3.12686 l -0.62825,0.74756 0.6219,1.40793 c 0.34205,0.77436 0.73439,1.33841 0.87186,1.25343 0.13749,-0.085 0.45286,-0.68571 0.70081,-1.33497 z"
       id="path2951" />
  </g>
</svg>
